#!OML:ASF I:\Actors\actors\Patient Classification 1\Patient 1\Session 1\Subject1.ASF
:FULLY-SPECIFIED
:DEGREES
342
root 0.596146 17.4545 9.39451 6.67127 -3.10838 -9.39911
lowerback -3.04026 1.99786 6.76136
upperback -8.59368 2.85924 1.64469
thorax -7.08403 1.03508 -2.12541
lowerneck -13.8764 -3.24359 -0.0846188
upperneck 35.0115 -5.91024 2.74102
head 14.4548 -2.19517 0.173634
rclavicle 4.57205e-015 2.14687e-014
rhumerus 27.2935 34.4073 -35.4488
rradius 99.5619
rwrist 36.3286
rhand -14.401 -22.9113
rfingers 7.12502
rthumb 11.7425 -52.5622
lclavicle 4.57205e-015 2.14687e-014
lhumerus -40.7241 -15.956 103.211
lradius 99.9947
lwrist 21.4917
lhand -27.5974 -4.20226
lfingers 7.12502
lthumb -0.99704 25.7752
rfemur -4.56721 19.9925 27.0519
rtibia 10.1781
rfoot -13.8513 -20.1541
rtoes 1.23096
lfemur 11.1476 -43.6821 -15.9838
ltibia -4.77135
lfoot -27.1464 53.3778
ltoes 15.6154
343
root 0.593671 17.4548 9.39021 6.67465 -3.0937 -9.43031
lowerback -3.10825 1.95691 6.69685
upperback -8.56999 2.79847 1.69092
thorax -7.02813 1.01328 -2.03712
lowerneck -13.7954 -3.22535 -0.135937
upperneck 34.9232 -5.87547 2.78048
head 14.3983 -2.18521 0.206042
rclavicle -1.97791e-014 8.74653e-015
rhumerus 26.1168 34.8222 -36.8278
rradius 99.678
rwrist 36.5318
rhand -14.2808 -23.2047
rfingers 7.12502
rthumb 11.8583 -52.849
lclavicle -1.97791e-014 8.74653e-015
lhumerus -40.7008 -15.7969 103.203
lradius 99.9991
lwrist 21.4489
lhand -27.5766 -4.23332
lfingers 7.12502
lthumb -0.976962 25.7442
rfemur -4.5798 20.0092 27.0966
rtibia 10.1599
rfoot -13.824 -20.1927
rtoes 1.2681
lfemur 11.1334 -43.7031 -15.925
ltibia -4.78568
lfoot -27.0887 53.4188
ltoes 15.62
344
root 0.591168 17.4546 9.38703 6.6719 -3.07974 -9.47192
lowerback -3.12196 1.94905 6.68269
upperback -8.56423 2.78636 1.69369
thorax -7.01543 1.00886 -2.02556
lowerneck -13.7037 -3.24229 -0.156171
upperneck 34.7937 -5.92017 2.87468
head 14.3242 -2.19879 0.24255
rclavicle -4.47266e-015 -9.54166e-015
rhumerus 24.724 35.2243 -38.3657
rradius 99.7739
rwrist 36.7064
rhand -14.355 -23.4918
rfingers 7.12502
rthumb 11.7868 -53.1401
lclavicle -4.47266e-015 -9.54166e-015
lhumerus -40.736 -15.7533 103.199
lradius 100.027
lwrist 21.4357
lhand -27.6652 -4.23324
lfingers 7.12502
lthumb -1.06256 25.7439
rfemur -4.57729 20.0424 27.158
rtibia 10.1514
rfoot -13.8473 -20.2071
rtoes 1.48804
lfemur 11.0677 -43.6119 -15.8044
ltibia -4.77311
lfoot -26.9458 53.342
ltoes 15.4866
345
root 0.589085 17.4546 9.38448 6.65728 -3.05406 -9.49658
lowerback -3.12961 1.91787 6.63273
upperback -8.5556 2.74458 1.72497
thorax -7.00793 0.993044 -1.96387
lowerneck -13.8287 -3.2969 -0.604955
upperneck 34.9051 -6.00566 3.22299
head 14.4383 -2.24278 0.445761
rclavicle -4.47266e-015 -1.98785e-015
rhumerus 23.2325 35.6541 -40.0471
rradius 99.8975
rwrist 36.7088
rhand -14.4322 -23.6784
rfingers 7.12502
rthumb 11.7124 -53.331
lclavicle -4.47266e-015 -1.98785e-015
lhumerus -40.7712 -15.6573 103.215
lradius 100.063
lwrist 21.4404
lhand -27.8026 -4.19971
lfingers 7.12502
lthumb -1.19526 25.7767
rfemur -4.55738 20.0495 27.1979
rtibia 10.1461
rfoot -13.8938 -20.1952
rtoes 1.76685
lfemur 11.051 -43.6012 -15.7522
ltibia -4.76298
lfoot -27.1076 53.2632
ltoes 15.7124
346
root 0.586394 17.4548 9.38167 6.64864 -3.0141 -9.50693
lowerback -3.19928 1.86946 6.54532
upperback -8.52271 2.67234 1.75697
thorax -6.94144 0.966886 -1.87766
lowerneck -13.8224 -3.3212 -0.622649
upperneck 34.8687 -6.03895 3.23088
head 14.422 -2.25982 0.446511
rclavicle 1.65985e-014 -2.54444e-014
rhumerus 21.543 36.0282 -41.9974
rradius 100.054
rwrist 36.8336
rhand -14.476 -23.8774
rfingers 7.12502
rthumb 11.6701 -53.5324
lclavicle 1.65985e-014 -2.54444e-014
lhumerus -40.7738 -15.5694 103.203
lradius 100.121
lwrist 21.4752
lhand -27.8462 -4.0942
lfingers 7.12502
lthumb -1.23733 25.882
rfemur -4.54838 20.0448 27.222
rtibia 10.1393
rfoot -13.8943 -20.211
rtoes 1.84116
lfemur 11.0628 -43.6736 -15.7381
ltibia -4.77295
lfoot -27.2993 53.2471
ltoes 15.9497
347
root 0.583013 17.4552 9.37815 6.65567 -2.96288 -9.52349
lowerback -3.32891 1.83492 6.47975
upperback -8.46691 2.61089 1.76131
thorax -6.8125 0.945876 -1.83064
lowerneck -13.8218 -3.36239 -0.596281
upperneck 34.7967 -6.11287 3.25069
head 14.391 -2.28751 0.437637
rclavicle 4.67144e-015 2.82274e-014
rhumerus 19.5961 36.2877 -44.2252
rradius 100.196
rwrist 37.0757
rhand -14.5534 -24.2023
rfingers 7.12502
rthumb 11.5954 -53.8615
lclavicle 4.67144e-015 2.82274e-014
lhumerus -40.7521 -15.545 103.164
lradius 100.18
lwrist 21.4926
lhand -27.8519 -4.02468
lfingers 7.12502
lthumb -1.24291 25.9514
rfemur -4.57724 20.0471 27.2524
rtibia 10.1501
rfoot -13.8431 -20.2834
rtoes 1.51096
lfemur 11.0524 -43.7945 -15.6981
ltibia -4.7941
lfoot -27.1741 53.3499
ltoes 15.7089
348
root 0.579586 17.4555 9.37457 6.67066 -2.90591 -9.55094
lowerback -2.98976 1.86512 6.58109
upperback -8.74462 2.69152 1.62715
thorax -7.29686 0.953704 -2.04398
lowerneck -13.6034 -3.48011 -0.580794
upperneck 34.9677 -6.33875 3.34033
head 14.431 -2.37139 0.439091
rclavicle -1.11319e-014 -2.90226e-014
rhumerus 16.7982 36.6284 -47.007
rradius 100.378
rwrist 37.122
rhand -14.5741 -24.7478
rfingers 7.12502
rthumb 11.5755 -54.4081
lclavicle -1.11319e-014 -2.90226e-014
lhumerus -41.3208 -15.6694 103.245
lradius 100.269
lwrist 21.5107
lhand -27.9074 -4.05495
lfingers 7.12502
lthumb -1.29646 25.9209
rfemur -4.61217 20.0624 27.2904
rtibia 10.1499
rfoot -13.8333 -20.3611
rtoes 1.46195
lfemur 10.9955 -43.857 -15.6074
ltibia -4.80842
lfoot -26.8786 53.4518
ltoes 15.3352
349
root 0.57631 17.4553 9.37207 6.65768 -2.84871 -9.55755
lowerback -3.44063 1.77168 6.3547
upperback -8.41624 2.51254 1.75834
thorax -6.7034 0.909267 -1.75864
lowerneck -14.012 -3.51318 -0.595259
upperneck 34.9301 -6.33861 3.20483
head 14.5004 -2.38578 0.377342
rclavicle 3.1408e-014 -4.65156e-014
rhumerus 15.5001 36.6329 -48.8912
rradius 100.381
rwrist 36.9701
rhand -14.6734 -25.4625
rfingers 7.12502
rthumb 11.4798 -55.1282
lclavicle 3.1408e-014 -4.65156e-014
lhumerus -40.7568 -15.4731 103.137
lradius 100.239
lwrist 21.5318
lhand -27.9289 -4.06052
lfingers 7.12502
lthumb -1.31723 25.9152
rfemur -4.58193 20.0693 27.3188
rtibia 10.1189
rfoot -13.8952 -20.3904
rtoes 1.87326
lfemur 10.93 -43.7565 -15.519
ltibia -4.81046
lfoot -26.5484 53.3881
ltoes 15.0253
350
root 0.573453 17.4545 9.37024 6.62317 -2.80197 -9.53755
lowerback -2.8291 1.81966 6.46329
upperback -8.85088 2.64644 1.57747
thorax -7.51097 0.928724 -2.03664
lowerneck -13.8293 -3.71701 -0.752139
upperneck 35.3765 -6.664 3.29267
head 14.6876 -2.52891 0.390429
rclavicle 4.37326e-015 -1.27222e-014
rhumerus 12.3773 36.8623 -51.959
rradius 100.565
rwrist 36.936
rhand -14.8848 -26.3592
rfingers 7.12502
rthumb 11.2759 -56.0361
lclavicle 4.37326e-015 -1.27222e-014
lhumerus -41.6718 -15.5767 103.348
lradius 100.354
lwrist 21.4911
lhand -27.921 -4.18042
lfingers 7.12502
lthumb -1.30958 25.7953
rfemur -4.5206 20.0034 27.32
rtibia 10.0762
rfoot -13.8917 -20.3692
rtoes 1.95423
lfemur 10.9396 -43.7244 -15.5335
ltibia -4.80106
lfoot -26.4917 53.31
ltoes 14.9769
351
root 0.570257 17.4532 9.36811 6.6144 -2.77285 -9.58384
lowerback -2.648 1.8227 6.49242
upperback -9.00906 2.67453 1.55222
thorax -7.78653 0.927904 -2.08828
lowerneck -13.5962 -3.75979 -0.614008
upperneck 35.4421 -6.72402 3.16008
head 14.6538 -2.55799 0.307367
rclavicle -6.95746e-015 -1.43125e-014
rhumerus 9.8589 36.858 -54.6473
rradius 100.826
rwrist 36.8
rhand -15.0724 -27.5218
rfingers 7.12502
rthumb 11.0949 -57.2085
lclavicle -6.95746e-015 -1.43125e-014
lhumerus -42.1028 -15.5303 103.484
lradius 100.435
lwrist 21.3843
lhand -27.9364 -4.35859
lfingers 7.12502
lthumb -1.32445 25.617
rfemur -4.50957 19.9463 27.3802
rtibia 10.0529
rfoot -13.8414 -20.355
rtoes 1.81185
lfemur 10.9696 -43.8221 -15.5039
ltibia -4.78961
lfoot -26.5321 53.3655
ltoes 14.9613
352
root 0.567688 17.4517 9.36607 6.60251 -2.75146 -9.66847
lowerback -2.89034 1.7633 6.43001
upperback -8.85553 2.5702 1.66249
thorax -7.49169 0.897325 -1.92463
lowerneck -13.731 -3.76974 -0.873647
upperneck 35.4284 -6.71363 3.29714
head 14.696 -2.5676 0.407129
rclavicle -4.47266e-015 -3.97569e-016
rhumerus 8.11955 36.6414 -56.9923
rradius 100.975
rwrist 36.5954
rhand -15.0803 -28.403
rfingers 7.12502
rthumb 11.0873 -58.0901
lclavicle -4.47266e-015 -3.97569e-016
lhumerus -41.9459 -15.3776 103.456
lradius 100.501
lwrist 21.3448
lhand -27.9204 -4.41067
lfingers 7.12502
lthumb -1.30903 25.5651
rfemur -4.49634 19.9422 27.4903
rtibia 10.0536
rfoot -13.857 -20.3651
rtoes 1.74304
lfemur 10.9794 -43.8482 -15.4068
ltibia -4.78386
lfoot -26.4732 53.4016
ltoes 14.8729
353
root 0.566479 17.4507 9.36411 6.5692 -2.75522 -9.7056
lowerback -3.54544 1.63687 6.18
upperback -8.36827 2.32676 1.90498
thorax -6.61507 0.836961 -1.50178
lowerneck -14.0668 -3.68148 -0.931172
upperneck 35.1102 -6.50396 3.1914
head 14.6137 -2.50071 0.400867
rclavicle -2.43511e-014 1.98785e-015
rhumerus 7.20814 36.28 -58.91
rradius 100.987
rwrist 36.3455
rhand -14.9103 -28.9667
rfingers 7.12502
rthumb 11.2513 -58.6449
lclavicle -2.43511e-014 1.98785e-015
lhumerus -41.1558 -15.064 103.292
lradius 100.529
lwrist 21.4081
lhand -27.8974 -4.43415
lfingers 7.12502
lthumb -1.28686 25.5417
rfemur -4.44459 19.9365 27.553
rtibia 10.034
rfoot -13.9034 -20.3464
rtoes 1.70522
lfemur 11.0379 -43.8566 -15.4068
ltibia -4.78018
lfoot -26.5712 53.4043
ltoes 14.9806
354
root 0.564987 17.4504 9.36172 6.55388 -2.79081 -9.6964
lowerback -3.55282 1.59767 6.10529
upperback -8.35984 2.27489 1.9502
thorax -6.60874 0.817811 -1.412
lowerneck -14.0712 -3.70037 -1.02704
upperneck 35.118 -6.50908 3.20057
head 14.6227 -2.51484 0.420129
rclavicle 6.36111e-015 -4.33351e-014
rhumerus 5.16585 35.9754 -61.513
rradius 101.088
rwrist 36.2681
rhand -14.8939 -29.4659
rfingers 7.12502
rthumb 11.2671 -59.1433
lclavicle 6.36111e-015 -4.33351e-014
lhumerus -41.2203 -14.9472 103.289
lradius 100.629
lwrist 21.4993
lhand -27.9268 -4.41477
lfingers 7.12502
lthumb -1.31519 25.5609
rfemur -4.41003 19.9243 27.551
rtibia 9.99176
rfoot -13.9006 -20.307
rtoes 1.56657
lfemur 11.1061 -43.9303 -15.4798
ltibia -4.77075
lfoot -26.7226 53.4747
ltoes 15.1878
355
root 0.563583 17.4507 9.35959 6.56674 -2.81916 -9.69297
lowerback -3.07167 1.67218 6.33366
upperback -8.73241 2.42914 1.76368
thorax -7.26912 0.846832 -1.75421
lowerneck -13.7244 -3.82108 -1.0546
upperneck 35.2672 -6.71595 3.26133
head 14.624 -2.60328 0.423094
rclavicle -7.15625e-015 -1.27222e-014
rhumerus 2.18898 35.546 -64.648
rradius 101.302
rwrist 36.3213
rhand -14.9548 -29.9646
rfingers 7.12502
rthumb 11.2083 -59.6452
lclavicle -7.15625e-015 -1.27222e-014
lhumerus -41.9739 -15.161 103.391
lradius 100.78
lwrist 21.5717
lhand -27.9324 -4.28512
lfingers 7.12502
lthumb -1.32063 25.6905
rfemur -4.41512 19.8927 27.543
rtibia 9.96205
rfoot -13.8381 -20.279
rtoes 1.31533
lfemur 11.0992 -43.9439 -15.4734
ltibia -4.77547
lfoot -26.766 53.4944
ltoes 15.2823
